<?xml version="1.0" encoding="utf-8"?>
<!-- Generator: Adobe Illustrator 15.1.0, SVG Export Plug-In . SVG Version: 6.00 Build 0)  -->
<!DOCTYPE svg PUBLIC "-//W3C//DTD SVG 1.0//EN" "http://www.w3.org/TR/2001/REC-SVG-20010904/DTD/svg10.dtd">
<svg version="1.0" id="Layer_1" xmlns="http://www.w3.org/2000/svg" xmlns:xlink="http://www.w3.org/1999/xlink" x="0px" y="0px"
	 width="512px" height="512px" viewBox="0 0 512 512" enable-background="new 0 0 512 512" xml:space="preserve">
<g>
	<g>
		<path fill="#FFFFFF" stroke="#FFFFFF" stroke-width="2" stroke-linejoin="round" stroke-miterlimit="10" d="M136.649902,59.290039
			C121.100098,68.75,106.569824,80.149902,93.359863,93.359863S68.75,121.100098,59.290039,136.649902l8.77002,5.070313
			c18.330078-30.02002,43.640137-55.330078,73.660156-73.660156L136.649902,59.290039z M256,26
			c-18.680176,0-37.009766,2.209961-54.709961,6.509766l2.600098,9.720215C220.600098,38.160156,238.049805,36,256,36
			s35.400391,2.160156,52.110352,6.22998l2.599609-9.720215C293.019531,28.209961,274.679688,26,256,26z M418.629883,93.359863
			c-13.200195-13.199707-27.729492-24.600098-43.280273-34.069824l-5.069336,8.77002
			c30.019531,18.330078,55.330078,43.640137,73.660156,73.660156l8.769531-5.070313
			C443.25,121.100098,431.839844,106.569824,418.629883,93.359863z M467.169922,317.759766
			c-4.5,15.379883-10.639648,30.070313-18.229492,43.860352l8.790039,5.080078
			c8.089844-14.69043,14.519531-30.209961,19.189453-46.320313L467.169922,317.759766z M361.620117,448.94043
			c-13.790039,7.589844-28.480469,13.729492-43.860352,18.229492l2.620117,9.75
			c16.110352-4.669922,31.629883-11.099609,46.320313-19.189453L361.620117,448.94043z M150.379883,448.94043l-5.080078,8.799805
			c14.69043,8.080078,30.209961,14.509766,46.320313,19.179688l2.620117-9.75
			C178.859863,462.669922,164.169922,456.530273,150.379883,448.94043z M44.830078,317.759766l-9.75,2.620117
			C39.75,336.490234,46.180176,352.009766,54.27002,366.700195l8.790039-5.080078
			C55.470215,347.830078,49.330078,333.139648,44.830078,317.759766z M36,256c0-17.950195,2.160156-35.399902,6.22998-52.109863
			l-9.720215-2.600098C28.209961,218.990234,26,237.319824,26,256c0,18.679688,2.209961,37.019531,6.509766,54.709961
			l9.720215-2.599609C38.160156,291.400391,36,273.950195,36,256z M68.060059,370.280273l-8.77002,5.069336
			c9.469727,15.550781,20.870117,30.080078,34.069824,43.280273c13.209961,13.209961,27.740234,24.620117,43.290039,34.080078
			l5.070313-8.769531C111.700195,425.610352,86.390137,400.299805,68.060059,370.280273z M308.110352,469.769531
			C291.400391,473.839844,273.950195,476,256,476s-35.399902-2.160156-52.109863-6.230469l-2.600098,9.720703
			C218.990234,483.790039,237.319824,486,256,486c18.679688,0,37.019531-2.209961,54.709961-6.509766L308.110352,469.769531z
			 M443.94043,370.280273c-18.330078,30.019531-43.640625,55.330078-73.660156,73.660156l5.069336,8.769531
			c15.550781-9.469727,30.080078-20.870117,43.280273-34.080078c13.209961-13.200195,24.610352-27.729492,34.080078-43.280273
			L443.94043,370.280273z M479.490234,201.290039l-9.720703,2.600098C473.839844,220.600098,476,238.049805,476,256
			s-2.160156,35.400391-6.230469,52.110352l9.720703,2.599609C483.790039,293.019531,486,274.679688,486,256
			C486,237.319824,483.790039,218.990234,479.490234,201.290039z M457.740234,145.299805l-8.799805,5.080078
			c7.589844,13.790039,13.729492,28.47998,18.229492,43.860352l9.75-2.620117
			C472.25,175.509766,465.820313,159.990234,457.740234,145.299805z M320.379883,35.080078l-2.620117,9.75
			c15.379883,4.5,30.070313,10.640137,43.860352,18.22998l5.080078-8.790039
			C352.009766,46.180176,336.490234,39.75,320.379883,35.080078z M191.620117,35.080078
			C175.509766,39.75,159.990234,46.180176,145.299805,54.259766l5.080078,8.800293
			c13.790039-7.589844,28.47998-13.72998,43.860352-18.22998L191.620117,35.080078z M54.259766,145.299805
			c-8.07959,14.69043-14.509766,30.209961-19.179688,46.320313l9.75,2.620117c4.5-15.380371,10.640137-30.070313,18.22998-43.860352
			L54.259766,145.299805z"/>
		<path fill="#FFFFFF" stroke="#FFFFFF" stroke-width="2" stroke-linejoin="round" stroke-miterlimit="10" d="M69.549805,154.129883
			c-7.259766,13.22998-13.149902,27.310059-17.469727,42.050293l9.649902,2.589844
			c4.100098-13.890137,9.649902-27.160156,16.47998-39.640137L69.549805,154.129883z M196.180176,52.080078
			c-14.740234,4.319824-28.820313,10.209961-42.050293,17.469727l5,8.660156c12.47998-6.830078,25.75-12.379883,39.640137-16.47998
			L196.180176,52.080078z M315.820313,52.080078l-2.589844,9.649902c13.889648,4.100098,27.15918,9.649902,39.639648,16.47998
			l5-8.660156C344.639648,62.290039,330.55957,56.399902,315.820313,52.080078z M442.450195,154.129883l-8.660156,5
			c6.830078,12.47998,12.379883,25.75,16.479492,39.640137l9.650391-2.589844
			C455.599609,181.439941,449.709961,167.359863,442.450195,154.129883z M462.519531,205.839844l-9.669922,2.590332
			c2.560547,10.560059,4.280273,21.439941,5.100586,32.569824h10.019531
			C467.129883,228.97998,465.290039,217.22998,462.519531,205.839844z M457.950195,271
			c-0.820313,11.129883-2.540039,22.009766-5.100586,32.570313l9.669922,2.589844
			c2.770508-11.390625,4.610352-23.140625,5.450195-35.160156H457.950195z M388.120117,409.339844
			c-8.299805,7.169922-17.19043,13.669922-26.589844,19.429688l4.989258,8.660156
			c10.150391-6.209961,19.740234-13.229492,28.680664-21.009766L388.120117,409.339844z M428.769531,361.530273
			c-5.759766,9.399414-12.259766,18.290039-19.429688,26.599609l7.080078,7.080078
			c7.770508-8.94043,14.799805-18.540039,21.009766-28.69043L428.769531,361.530273z M303.570313,452.849609
			c-10.560547,2.560547-21.44043,4.280273-32.570313,5.100586v10.019531c12.019531-0.839844,23.769531-2.679688,35.160156-5.450195
			L303.570313,452.849609z M208.430176,452.849609l-2.590332,9.669922c11.390137,2.770508,23.140137,4.610352,35.160156,5.450195
			v-10.019531C229.870117,457.129883,218.990234,455.410156,208.430176,452.849609z M83.22998,361.530273l-8.660156,4.989258
			c6.209961,10.150391,13.240234,19.75,21.010254,28.69043l7.080078-7.080078
			C95.490234,379.820313,88.990234,370.929688,83.22998,361.530273z M123.879883,409.339844l-7.080078,7.080078
			c8.94043,7.780273,18.530273,14.799805,28.680176,21.009766l4.990234-8.660156
			C141.069824,423.009766,132.180176,416.509766,123.879883,409.339844z M49.47998,205.839844
			C46.709961,217.22998,44.870117,228.97998,44.029785,241h10.02002c0.820313-11.129883,2.540039-22.009766,5.100098-32.569824
			L49.47998,205.839844z M54.049805,271h-10.02002c0.840332,12.019531,2.680176,23.769531,5.450195,35.160156l9.669922-2.589844
			C56.589844,293.009766,54.870117,282.129883,54.049805,271z M61.72998,313.230469l-9.649902,2.589844
			c4.319824,14.739258,10.209961,28.819336,17.469727,42.049805l8.660156-5
			C71.379883,340.389648,65.830078,327.120117,61.72998,313.230469z M159.129883,433.790039l-5,8.660156
			c13.22998,7.259766,27.310059,13.149414,42.050293,17.469727l2.589844-9.650391
			C184.879883,446.169922,171.609863,440.620117,159.129883,433.790039z M352.870117,433.790039
			c-12.480469,6.830078-25.75,12.379883-39.639648,16.479492l2.589844,9.650391
			c14.739258-4.320313,28.819336-10.209961,42.049805-17.469727L352.870117,433.790039z M450.269531,313.230469
			c-4.099609,13.889648-9.649414,27.15918-16.479492,39.639648l8.660156,5
			c7.259766-13.230469,13.149414-27.310547,17.469727-42.049805L450.269531,313.230469z M366.519531,74.569824l-4.989258,8.660156
			c9.399414,5.760254,18.290039,12.260254,26.599609,19.430176l7.080078-7.080078
			C386.269531,87.810059,376.669922,80.779785,366.519531,74.569824z M416.419922,116.790039l-7.080078,7.080078
			c7.169922,8.310059,13.669922,17.199707,19.429688,26.600098l8.660156-4.990234
			C431.219727,135.330078,424.19043,125.72998,416.419922,116.790039z M271,44.029785v10.02002
			c11.129883,0.820313,22.009766,2.540039,32.570313,5.100098l2.589844-9.669922
			C294.769531,46.709961,283.019531,44.870117,271,44.029785z M205.839844,49.47998l2.590332,9.669922
			C218.990234,56.589844,229.870117,54.870117,241,54.049805v-10.02002
			C228.97998,44.870117,217.22998,46.709961,205.839844,49.47998z M95.580078,116.790039
			c-7.77002,8.939941-14.800293,18.540039-21.010254,28.689941l8.660156,4.990234
			c5.760254-9.400391,12.260254-18.290039,19.430176-26.600098L95.580078,116.790039z M145.47998,74.569824
			c-10.149902,6.209961-19.75,13.240234-28.689941,21.010254l7.080078,7.080078
			c8.310059-7.169922,17.199707-13.669922,26.600098-19.430176L145.47998,74.569824z"/>
		<path fill="#FFFFFF" stroke="#FFFFFF" stroke-width="2" stroke-linejoin="round" stroke-miterlimit="10" d="M154.22998,89.720215
			c-5.970215,3.659668-11.720215,7.639648-17.239746,11.909668l7.119629,7.129883
			c4.860352-3.699707,9.899902-7.169922,15.120117-10.379883L154.22998,89.720215z M101.629883,136.990234
			c-4.27002,5.519531-8.25,11.269531-11.909668,17.239746l8.659668,5c3.209961-5.220215,6.680176-10.259766,10.379883-15.120117
			L101.629883,136.990234z M210.370117,66.390137l2.589844,9.669922c5.910156-1.419922,11.930176-2.550293,18.040039-3.370117
			V62.600098C224,63.490234,217.120117,64.77002,210.370117,66.390137z M281,62.600098v10.089844
			c6.110352,0.819824,12.129883,1.950195,18.040039,3.370117l2.589844-9.669922C294.879883,64.77002,288,63.490234,281,62.600098z
			 M410.370117,136.990234l-7.129883,7.119629c3.700195,4.860352,7.169922,9.899902,10.379883,15.120117l8.660156-5
			C418.620117,148.259766,414.639648,142.509766,410.370117,136.990234z M357.769531,89.720215l-5,8.659668
			c5.220703,3.209961,10.260742,6.680176,15.120117,10.379883l7.120117-7.129883
			C369.490234,97.359863,363.740234,93.379883,357.769531,89.720215z M433.349609,308.700195
			c-3.689453,12.389648-8.639648,24.25-14.719727,35.419922l8.660156,5c6.509766-11.919922,11.799805-24.580078,15.729492-37.830078
			L433.349609,308.700195z M344.120117,418.629883c-11.169922,6.080078-23.030273,11.030273-35.419922,14.719727l2.589844,9.669922
			c13.25-3.929688,25.910156-9.219727,37.830078-15.729492L344.120117,418.629883z M167.879883,418.629883l-5,8.660156
			c11.919922,6.509766,24.580078,11.799805,37.830078,15.729492l2.589844-9.669922
			C190.910156,429.660156,179.049805,424.709961,167.879883,418.629883z M78.649902,308.700195l-9.669922,2.589844
			c3.930176,13.25,9.220215,25.910156,15.72998,37.830078l8.660156-5
			C87.290039,332.950195,82.339844,321.089844,78.649902,308.700195z M72.689941,281H62.600098
			c0.890137,7,2.169922,13.879883,3.790039,20.629883l9.669922-2.589844C74.640137,293.129883,73.509766,287.110352,72.689941,281z
			 M66.390137,210.370117C64.77002,217.120117,63.490234,224,62.600098,231h10.089844
			c0.819824-6.109863,1.950195-12.129883,3.370117-18.040039L66.390137,210.370117z M144.120117,403.240234l-7.129883,7.129883
			c5.519531,4.269531,11.269531,8.25,17.239746,11.910156l5-8.660156
			C154.009766,410.410156,148.970215,406.94043,144.120117,403.240234z M89.720215,357.769531
			c3.659668,5.970703,7.639648,11.720703,11.909668,17.240234l7.129883-7.120117
			c-3.699707-4.859375-7.169922-9.899414-10.379883-15.120117L89.720215,357.769531z M212.959961,435.94043l-2.589844,9.669922
			c6.75,1.620117,13.629883,2.899414,20.629883,3.790039v-10.09082
			C224.890137,438.490234,218.870117,437.360352,212.959961,435.94043z M299.040039,435.94043
			c-5.910156,1.419922-11.929688,2.549805-18.040039,3.369141v10.09082c7-0.890625,13.879883-2.169922,20.629883-3.790039
			L299.040039,435.94043z M413.620117,352.769531c-3.209961,5.220703-6.679688,10.260742-10.379883,15.120117l7.129883,7.120117
			c4.269531-5.519531,8.25-11.269531,11.910156-17.240234L413.620117,352.769531z M367.879883,403.240234
			c-4.849609,3.700195-9.889648,7.169922-15.110352,10.379883l5,8.660156c5.970703-3.660156,11.720703-7.640625,17.240234-11.910156
			L367.879883,403.240234z M439.30957,281c-0.819336,6.110352-1.949219,12.129883-3.369141,18.040039l9.669922,2.589844
			c1.620117-6.75,2.899414-13.629883,3.790039-20.629883H439.30957z M445.610352,210.370117l-9.669922,2.589844
			c1.419922,5.910156,2.549805,11.930176,3.369141,18.040039h10.09082C448.509766,224,447.230469,217.120117,445.610352,210.370117z
			 M427.290039,162.879883l-8.660156,5c6.080078,11.169922,11.030273,23.030273,14.719727,35.419922l9.669922-2.589844
			C439.089844,187.459961,433.799805,174.799805,427.290039,162.879883z M311.290039,68.97998l-2.589844,9.669922
			c12.389648,3.689941,24.25,8.640137,35.419922,14.720215l5-8.660156
			C337.200195,78.200195,324.540039,72.910156,311.290039,68.97998z M200.709961,68.97998
			c-13.25,3.930176-25.910156,9.220215-37.830078,15.72998l5,8.660156c11.169922-6.080078,23.030273-11.030273,35.419922-14.720215
			L200.709961,68.97998z M84.709961,162.879883c-6.509766,11.919922-11.799805,24.580078-15.72998,37.830078l9.669922,2.589844
			c3.689941-12.389648,8.640137-24.25,14.720215-35.419922L84.709961,162.879883z"/>
	</g>
	<g>
		<path fill="#FFFFFF" stroke="#FFFFFF" stroke-width="2" stroke-linejoin="round" stroke-miterlimit="10" d="
			M165.050781,203.496094l-8.655273-5.008789c10.093262-17.442871,24.648438-31.998047,42.091309-42.091309l5.008789,8.655273
			C187.563477,174.27002,174.269531,187.563965,165.050781,203.496094z"/>
		<path fill="#FFFFFF" stroke="#FFFFFF" stroke-width="2" stroke-linejoin="round" stroke-miterlimit="10" d="M144.89502,285.772461
			C142.310547,276.108398,141,266.091797,141,256s1.30957-20.106934,3.89209-29.768066l9.661133,2.583008
			C152.195313,237.633789,151,246.780273,151,256s1.196289,18.367188,3.555176,27.188477L144.89502,285.772461z"/>
		<path fill="#FFFFFF" stroke="#FFFFFF" stroke-width="2" stroke-linejoin="round" stroke-miterlimit="10" d="M198.48877,355.600586
			c-17.441406-10.09375-31.996094-24.648438-42.090332-42.089844l8.655273-5.009766
			c9.219727,15.931641,22.513672,29.225586,38.443848,38.445313L198.48877,355.600586z"/>
		<path fill="#FFFFFF" stroke="#FFFFFF" stroke-width="2" stroke-linejoin="round" stroke-miterlimit="10" d="M256,371
			c-10.091309,0-20.106445-1.30957-29.768066-3.893555l2.583008-9.660156c17.637695,4.716797,36.728027,4.717773,54.369629-0.001953
			l2.583984,9.660156C276.105469,369.689453,266.089844,371,256,371z"/>
		<path fill="#FFFFFF" stroke="#FFFFFF" stroke-width="2" stroke-linejoin="round" stroke-miterlimit="10" d="
			M313.509766,355.597656L308.5,346.943359c15.929688-9.220703,29.222656-22.513672,38.443359-38.443359l8.654297,5.009766
			C345.503906,330.950195,330.950195,345.503906,313.509766,355.597656z"/>
		<path fill="#FFFFFF" stroke="#FFFFFF" stroke-width="2" stroke-linejoin="round" stroke-miterlimit="10" d="
			M367.104492,285.768555l-9.660156-2.583984C359.803711,274.364258,361,265.217773,361,256
			c0-9.219238-1.195313-18.365234-3.553711-27.184082l9.660156-2.583008C369.69043,235.894043,371,245.90918,371,256
			C371,266.089844,369.689453,276.105469,367.104492,285.768555z"/>
		<path fill="#FFFFFF" stroke="#FFFFFF" stroke-width="2" stroke-linejoin="round" stroke-miterlimit="10" d="
			M346.948242,203.499512c-9.220703-15.932129-22.516602-29.227051-38.449219-38.447754l5.007813-8.655273
			c17.445313,10.095215,32.000977,24.650879,42.095703,42.094238L346.948242,203.499512z"/>
		<path fill="#FFFFFF" stroke="#FFFFFF" stroke-width="2" stroke-linejoin="round" stroke-miterlimit="10" d="
			M227.947266,154.788574l-2.666016-9.637695C235.23877,142.396484,245.574219,141,256,141
			c10.09082,0,20.105469,1.310059,29.767578,3.893555l-2.583984,9.660156
			C265.250977,149.758789,245.833008,149.841797,227.947266,154.788574z"/>
	</g>
	<polygon fill="#FFFFFF" stroke="#FFFFFF" stroke-width="2" stroke-linejoin="round" stroke-miterlimit="10" points="241.22998,256 
		236.22998,261 218.5,261 218.5,251 236.22998,251 	"/>
	<polygon fill="#FFFFFF" stroke="#FFFFFF" stroke-width="2" stroke-linejoin="round" stroke-miterlimit="10" points="
		269.530273,256 274.530273,251 293.5,251 293.5,261 274.530273,261 	"/>
	<polygon fill="#FFFFFF" stroke="#FFFFFF" stroke-width="2" stroke-linejoin="round" stroke-miterlimit="10" points="
		255.379883,270.150391 260.379883,275.150391 260.379883,292.879883 250.379883,292.879883 250.379883,275.150391 	"/>
	<polygon fill="#FFFFFF" stroke="#FFFFFF" stroke-width="2" stroke-linejoin="round" stroke-miterlimit="10" points="
		255.379883,241.859863 250.379883,236.859863 250.379883,217.879883 260.379883,217.879883 260.379883,236.859863 	"/>
	<line fill="#FFFFFF" stroke="#FFFFFF" stroke-miterlimit="10" x1="241.22998" y1="256" x2="236.22998" y2="251"/>
	<line fill="#FFFFFF" stroke="#FFFFFF" stroke-miterlimit="10" x1="255.379883" y1="241.859863" x2="250.379883" y2="236.859863"/>
	<line fill="#FFFFFF" stroke="#FFFFFF" stroke-miterlimit="10" x1="274.530273" y1="261" x2="269.530273" y2="256"/>
	<line fill="#FFFFFF" stroke="#FFFFFF" stroke-miterlimit="10" x1="241.22998" y1="256" x2="236.22998" y2="261"/>
	<line fill="#FFFFFF" stroke="#FFFFFF" stroke-miterlimit="10" x1="255.379883" y1="270.150391" x2="250.379883" y2="275.150391"/>
	<line fill="#FFFFFF" stroke="#FFFFFF" stroke-miterlimit="10" x1="260.379883" y1="236.859863" x2="255.379883" y2="241.859863"/>
	<line fill="#FFFFFF" stroke="#FFFFFF" stroke-miterlimit="10" x1="274.530273" y1="251" x2="269.530273" y2="256"/>
	
		<rect x="9.405273" y="246" fill="#FFFFFF" stroke="#FFFFFF" stroke-width="2" stroke-linejoin="round" stroke-miterlimit="10" width="100" height="20"/>
	
		<rect x="109.405273" y="251.004883" fill="#FFFFFF" stroke="#FFFFFF" stroke-width="2" stroke-linejoin="round" stroke-miterlimit="10" width="75" height="10"/>
	
		<rect x="250.382813" y="326.976563" fill="#FFFFFF" stroke="#FFFFFF" stroke-width="2" stroke-linejoin="round" stroke-miterlimit="10" width="10" height="75"/>
	
		<rect x="326.354492" y="250.999023" fill="#FFFFFF" stroke="#FFFFFF" stroke-width="2" stroke-linejoin="round" stroke-miterlimit="10" width="75" height="10"/>
	
		<rect x="250.376953" y="110.027344" fill="#FFFFFF" stroke="#FFFFFF" stroke-width="2" stroke-linejoin="round" stroke-miterlimit="10" width="10" height="75"/>
	
		<rect x="109.30323" y="344.575195" transform="matrix(0.707074 0.707139 -0.707139 0.707074 313.234375 32.984924)" fill="#FFFFFF" stroke="#FFFFFF" stroke-width="2" stroke-linejoin="round" stroke-miterlimit="10" width="15.000469" height="100.000023"/>
	
		<rect x="245.877686" y="401.976563" fill="#FFFFFF" stroke="#FFFFFF" stroke-width="2" stroke-linejoin="round" stroke-miterlimit="10" width="18.999512" height="100"/>
	
		<rect x="343.953278" y="387.078033" transform="matrix(0.707112 0.707102 -0.707102 0.707112 394.391571 -162.997498)" fill="#FFFFFF" stroke="#FFFFFF" stroke-width="2" stroke-linejoin="round" stroke-miterlimit="10" width="99.99968" height="15.00116"/>
	
		<rect x="401.354492" y="246.504395" fill="#FFFFFF" stroke="#FFFFFF" stroke-width="2" stroke-linejoin="round" stroke-miterlimit="10" width="100" height="19"/>
	
		<rect x="383.956573" y="67.428452" transform="matrix(0.707131 0.707082 -0.707082 0.707131 198.409164 -244.168579)" fill="#FFFFFF" stroke="#FFFFFF" stroke-width="2" stroke-linejoin="round" stroke-miterlimit="10" width="19.999935" height="100.000023"/>
	
		<rect x="245.382324" y="10.027344" fill="#FFFFFF" stroke="#FFFFFF" stroke-width="2" stroke-linejoin="round" stroke-miterlimit="10" width="20" height="100"/>
	
		<rect x="66.806801" y="109.9254" transform="matrix(0.707112 0.707102 -0.707102 0.707112 117.24295 -48.201691)" fill="#FFFFFF" stroke="#FFFFFF" stroke-width="2" stroke-linejoin="round" stroke-miterlimit="10" width="99.99968" height="14.999779"/>
</g>
</svg>
